# xmcd
#
# Track frame offsets:
#	150
#	22772
#	42564
#	56944
#	71279
#	86173
#	108267
#	128080
#	138290
#	156984
#
# Disc length: 2590 seconds
#
# Revision: 1
# Processed by: cddbd v1.4PL0 Copyright (c) Steve Scherf et al.
# Submitted via: CDmax 1.8
#
DISCID=840a1c0a
DTITLE=Blues Goblins
DYEAR=2002
DGENRE=Blues
TTITLE0=Drunken Spree
TTITLE1=Still A Fool
TTITLE2=Black Snake Moan
TTITLE3=Spoonful Blues
TTITLE4=Born To Die
TTITLE5=I Ask For Water
TTITLE6=I've Been Treated Wrong
TTITLE7=Pedro's Boogie
TTITLE8=Hellhound On My Trail
TTITLE9=Rollin' and Tumblin'
EXTD=
EXTT0=
EXTT1=
EXTT2=
EXTT3=
EXTT4=
EXTT5=
EXTT6=
EXTT7=
EXTT8=
EXTT9=
PLAYORDER=
